<svg width="44" height="45" viewBox="0 0 44 45" fill="none" xmlns="http://www.w3.org/2000/svg">
<path d="M8.61644 32.5807C6.78311 30.5641 5.68311 28.3641 5.68311 24.6974C5.68311 18.2807 10.2664 12.5974 16.6831 9.66406L18.3331 12.0474C12.2831 15.3474 10.9998 19.5641 10.6331 22.3141C11.5498 21.7641 12.8331 21.5807 14.1164 21.7641C17.4164 22.1307 19.9831 24.6974 19.9831 28.1807C19.9831 29.8307 19.2498 31.4807 18.1498 32.7641C16.8664 34.0474 15.3998 34.5974 13.5664 34.5974C11.5498 34.5974 9.71644 33.6807 8.61644 32.5807ZM26.9498 32.5807C25.1164 30.5641 24.0164 28.3641 24.0164 24.6974C24.0164 18.2807 28.5998 12.5974 35.0164 9.66406L36.6664 12.0474C30.6164 15.3474 29.3331 19.5641 28.9664 22.3141C29.8831 21.7641 31.1664 21.5807 32.4498 21.7641C35.7498 22.1307 38.3164 24.6974 38.3164 28.1807C38.3164 29.8307 37.5831 31.4807 36.4831 32.7641C35.3831 34.0474 33.7331 34.5974 31.8998 34.5974C29.8831 34.5974 28.0498 33.6807 26.9498 32.5807Z" fill="white" fill-opacity="0.22"/>
</svg>
