<svg width="43" height="55" viewBox="0 0 43 55" fill="none" xmlns="http://www.w3.org/2000/svg">
<path d="M0.111328 9.69677V41.8022C0.111328 42.6191 0.549072 43.3734 1.25838 43.7787L20.3707 54.7001C20.7206 54.9 21.1105 55 21.5002 55V7.42029H2.38792C1.13055 7.42029 0.111328 8.43951 0.111328 9.69677Z" fill="#005BBB"/>
<path d="M22.6294 54.7001L41.7418 43.7787C42.4511 43.3734 42.8889 42.6191 42.8889 41.8022V9.69677C42.8889 8.43951 41.8697 7.42029 40.6124 7.42029H21.5V55C21.8897 55 22.2796 54.9 22.6294 54.7001Z" fill="#FFD500"/>
<path d="M1.50147 0C0.733731 0 0.111328 0.622402 0.111328 1.39015V4.72098C0.111328 5.48872 0.733731 6.11112 1.50147 6.11112H21.5002V0H1.50147Z" fill="#005BBB"/>
<path d="M42.8889 4.72098V1.39015C42.8889 0.622402 42.2665 0 41.4987 0H21.5V6.11112H41.4987C42.2665 6.11112 42.8889 5.48872 42.8889 4.72098Z" fill="#FFD500"/>
<path d="M21.5002 7.42029H2.38793C2.10047 7.42029 1.82654 7.47583 1.57324 7.57304L21.5002 27.5V7.42029Z" fill="#0055AE"/>
<path d="M39.2199 45.2199L41.7419 43.7787C42.4512 43.3734 42.889 42.6191 42.889 41.8022V9.69677C42.889 8.43951 41.8698 7.42029 40.6125 7.42029H21.5V27.5L39.2199 45.2199Z" fill="#F2CA00"/>
<path d="M1.50147 6.11112H21.5002V0H1.50147C0.733731 0 0.111328 0.622402 0.111328 1.39015V4.72098C0.111328 5.48872 0.733731 6.11112 1.50147 6.11112Z" fill="#0055AE"/>
<path d="M41.4987 6.11112C42.2665 6.11112 42.8889 5.48872 42.8889 4.72098V1.39015C42.8889 0.622402 42.2665 0 41.4987 0H21.5V6.11112H41.4987Z" fill="#F2CA00"/>
</svg>
